<?xml version="1.0" standalone="no"?>
<!DOCTYPE svg PUBLIC "-//W3C//DTD SVG 20010904//EN"
 "http://www.w3.org/TR/2001/REC-SVG-20010904/DTD/svg10.dtd">
<svg version="1.0" xmlns="http://www.w3.org/2000/svg"
 width="1024.000000pt" height="1024.000000pt" viewBox="0 0 1024.000000 1024.000000"
 preserveAspectRatio="xMidYMid meet">
<metadata>
Created by potrace 1.14, written by Peter Selinger 2001-2017
</metadata>
<g transform="translate(0.000000,1024.000000) scale(0.100000,-0.100000)"
fill="#000000" stroke="none">
<path d="M0 6160 l0 -4081 113 3 112 3 3 73 3 72 92 2 c96 1 190 1 220 -1 15
-1 17 -12 17 -76 l0 -75 638 2 637 3 3 78 3 77 129 0 130 0 0 -170 0 -170
-1050 0 -1050 0 0 -231 0 -230 23 3 c21 3 22 -1 25 -69 l3 -73 379 -2 380 -3
0 78 0 77 85 0 85 0 0 -80 c0 -57 -4 -80 -12 -81 -7 -1 -43 0 -80 1 l-68 2 -2
-54 c-1 -57 -1 -86 1 -105 1 -10 135 -13 636 -13 l634 0 3 83 3 82 113 3 112
3 0 -84 0 -84 210 -8 c116 -4 314 -4 440 0 l230 8 0 77 0 78 213 7 c116 3 268
5 337 3 l125 -3 3 -81 3 -81 72 -5 c66 -4 400 -4 655 0 l102 2 0 85 0 85 190
0 189 0 3 78 3 77 105 0 105 0 0 -85 0 -85 -77 -3 -78 -3 0 -74 0 -75 128 0
c70 0 219 0 332 -1 113 0 357 0 543 0 l337 1 0 85 0 85 120 0 120 0 0 -80 0
-80 283 0 c156 0 406 -3 555 -7 l271 -6 3 164 3 164 170 0 170 0 3 -71 3 -72
172 -7 c95 -3 231 -5 302 -3 l130 3 3 73 3 72 80 0 81 0 -5 -77 c-3 -43 -6
-79 -6 -80 -1 -2 -13 -3 -28 -3 -16 0 -45 -3 -65 -6 l-38 -7 0 -73 0 -74 640
0 640 0 0 90 0 90 70 0 70 0 0 165 0 164 -72 3 -73 3 -3 88 -3 87 53 1 c29 1
63 0 76 -1 20 -1 22 3 22 46 l0 47 -1437 -4 c-791 -2 -1635 -2 -1875 -1 l-438
2 0 90 0 90 475 0 475 0 0 75 c0 53 4 75 13 76 52 5 300 7 335 2 l42 -6 0 -73
0 -74 310 0 310 0 0 80 0 80 180 0 180 0 0 -80 0 -80 473 2 472 3 3 78 3 77
169 0 170 0 0 -75 0 -75 70 0 70 0 0 4075 0 4075 -5120 0 -5120 0 0 -4080z
m7830 3040 l0 -110 90 0 90 0 0 -130 0 -130 90 0 90 0 0 -135 0 -135 -432 0
c-238 0 -619 -3 -845 -7 l-413 -6 0 95 c0 52 -3 116 -6 142 l-7 46 -116 0
-116 0 -2 205 c-1 113 1 221 4 240 l6 35 783 0 784 0 0 -110z m-780 -1180 l0
-200 109 0 c60 0 115 -2 123 -5 10 -4 13 -34 11 -130 l-2 -125 123 0 124 0 -5
-102 c-3 -57 -7 -104 -8 -106 -1 -1 -183 -6 -404 -9 l-401 -6 0 146 0 147
-115 0 -115 0 0 90 0 90 110 0 c81 0 110 3 111 13 0 6 2 84 4 172 1 88 3 175
4 193 l1 32 165 0 165 0 0 -200z m1139 -65 l-1 -125 -98 0 -98 0 -1 125 -2
125 101 0 101 0 -2 -125z m436 -220 l0 -80 88 -3 87 -3 0 -74 0 -74 83 -3 82
-3 3 -62 3 -63 79 0 80 0 0 -80 0 -80 -85 0 -85 0 0 -70 0 -70 -385 0 -385 0
0 73 c0 120 2 117 -101 117 l-89 0 0 60 0 60 -85 0 -85 0 0 70 c0 68 -1 70
-26 70 -14 0 -23 4 -19 10 6 10 -30 52 -38 43 -3 -2 -8 13 -12 35 -6 37 -8 39
-47 40 -22 1 -44 4 -49 8 -5 3 -9 39 -9 80 l0 74 180 0 c153 0 180 -2 181 -15
1 -8 3 -19 4 -25 1 -5 3 -37 4 -70 l1 -60 90 0 90 0 0 90 0 90 223 -2 222 -3
0 -80z m-2353 -280 c11 -24 14 -25 120 -25 l108 0 0 -261 0 -260 163 7 c89 3
264 3 390 -1 l227 -7 0 -73 0 -72 68 -6 c37 -4 95 -7 130 -7 l62 0 0 -130 0
-130 153 -1 c219 -2 470 -6 485 -8 9 -1 12 -30 12 -111 l0 -109 128 -3 127 -3
3 -132 3 -133 62 0 c34 0 79 -3 100 -6 l37 -7 0 -973 0 -974 -105 0 -105 0 0
-135 0 -135 -130 0 -130 0 0 -110 0 -110 -322 -2 -323 -3 3 -172 3 -173 -130
0 -131 0 0 -99 0 -99 -952 -7 c-987 -8 -1143 -9 -1290 -6 l-88 1 0 95 0 95
-85 0 c-61 0 -85 -4 -87 -12 -1 -13 -5 -86 -7 -145 l-1 -33 -215 0 -215 0 0
63 c0 34 -3 113 -7 175 l-6 112 -89 0 -88 0 0 -174 0 -174 -365 0 -365 -1 0
104 0 105 -114 0 -114 0 -7 57 c-4 32 -4 160 0 285 l8 228 -94 0 c-52 1 -246
0 -431 0 l-337 -1 -3 133 -3 133 -247 3 -248 2 0 105 0 105 -550 0 -550 0 0
100 0 100 155 0 155 0 0 125 0 125 640 0 640 0 0 -125 0 -125 313 2 312 3 3
95 c2 60 7 97 15 102 9 6 9 8 0 8 -7 0 -13 12 -13 26 l0 26 -92 -2 c-51 -1
-191 -2 -310 -1 l-218 1 0 105 0 105 130 0 130 0 0 101 0 100 98 -2 97 -2 5
108 c6 128 -20 114 218 114 l162 1 0 104 0 105 -391 1 c-260 0 -396 -3 -405
-10 -8 -8 -14 -8 -19 0 -3 5 -12 10 -18 10 -7 0 -4 -5 6 -11 9 -6 15 -14 13
-18 -3 -4 -6 -26 -7 -49 -2 -23 -7 -42 -11 -42 -4 0 -8 -8 -8 -17 0 -15 2 -16
10 -3 6 9 10 10 10 3 0 -6 -5 -15 -10 -18 -14 -9 -12 -55 3 -55 8 0 7 -4 -3
-10 -13 -9 -13 -10 0 -10 11 0 12 -2 3 -8 -8 -5 -12 -34 -12 -80 0 -42 4 -70
10 -67 5 4 9 -1 9 -10 0 -9 -4 -14 -9 -11 -5 4 -11 0 -13 -6 -4 -10 -89 -12
-396 -10 l-392 3 0 -100 0 -101 -125 0 -125 0 0 100 0 99 -127 3 -128 3 0 110
0 110 642 3 643 2 0 96 0 95 -333 -2 -332 -1 0 118 0 119 642 3 642 2 3 98 3
97 392 3 392 2 3 133 3 132 222 3 223 2 -5 87 c-3 47 -3 100 0 117 l6 31 662
-1 c364 0 774 2 910 3 l249 4 -2 467 c-1 257 -2 479 -1 495 l1 27 130 0 c129
0 131 0 142 -25z m-3900 -2089 c4 -21 2 -23 -12 -13 -14 8 -15 13 -6 23 6 7
12 13 12 14 1 0 4 -11 6 -24z m248 -16 c0 -5 -2 -10 -4 -10 -3 0 -8 5 -11 10
-3 6 -1 10 4 10 6 0 11 -4 11 -10z m-110 -160 c0 -5 -7 -10 -15 -10 -8 0 -15
5 -15 10 0 6 7 10 15 10 8 0 15 -4 15 -10z m2363 -2958 c14 -2 17 -13 17 -77
l0 -76 285 7 285 7 0 -97 0 -97 -1130 2 c-622 1 -1133 -1 -1137 -4 -3 -4 -28
-7 -55 -7 l-48 0 0 150 0 150 55 0 55 0 -2 -45 c-1 -24 1 -47 5 -51 4 -4 296
-8 649 -8 l643 -1 3 72 3 72 57 3 c61 3 285 3 315 0z m1611 -72 l1 -65 -110 0
-110 0 -3 54 c-5 84 -7 82 114 79 l106 -3 2 -65z m1934 -434 c2 -65 -1 -92
-10 -98 -7 -4 -55 -8 -105 -8 l-93 0 0 100 0 101 103 -3 102 -3 3 -89z m-7860
-4 l3 -82 -241 0 -240 0 0 80 0 80 223 3 c122 1 229 2 237 2 12 0 16 -18 18
-83z m3902 -2 l0 -91 -82 3 -83 3 -3 74 c-2 41 -1 80 2 88 4 9 28 13 86 13
l80 0 0 -90z m-560 0 l0 -80 -90 0 -90 0 0 80 0 80 90 0 90 0 0 -80z m-1796
-98 c3 -5 2 -48 -1 -96 l-6 -87 -141 3 -141 3 -3 87 c-2 76 -1 87 15 91 37 8
271 8 277 -1z m2184 -79 l3 -83 -38 -2 c-21 0 -67 -1 -103 -2 l-65 -1 -5 -85
-5 -85 -84 0 c-97 0 -98 1 -97 99 l1 61 78 3 77 3 0 83 c0 45 3 86 7 90 4 3
57 5 117 4 l111 -3 3 -82z m-3110 -10 l3 -83 -101 0 -100 0 0 78 c0 43 3 82 7
86 4 4 48 5 98 4 l90 -3 3 -82z m4282 -3 l0 -91 -72 3 -73 3 -3 82 -3 82 63 4
c35 2 69 4 76 5 9 1 12 -22 12 -88z m4622 68 c2 -13 2 -53 0 -91 l-4 -67 -171
2 -172 3 -3 88 -3 87 175 0 c173 0 175 0 178 -22z m-924 -65 l-3 -78 -80 -1
c-120 -2 -115 -5 -115 82 l0 74 100 0 101 0 -3 -77z m-7398 -178 l0 -95 -175
0 -175 0 -1 48 c-1 46 -1 135 0 140 1 1 80 2 176 2 l175 0 0 -95z m7950 -10
l0 -95 -182 2 -183 3 -3 93 -3 92 186 0 185 0 0 -95z"/>
<path d="M6020 6379 l0 -129 120 0 121 0 -3 127 -3 126 -117 2 -118 3 0 -129z"/>
<path d="M6250 5885 l0 -354 -117 -3 -118 -3 -5 -117 c-3 -64 -8 -120 -12
-124 -5 -4 -8 0 -8 9 0 13 -19 16 -145 16 l-144 0 2 -95 2 -94 -60 -1 c-33 -1
-77 0 -97 1 -20 1 -46 -4 -58 -10 -20 -11 -21 -18 -18 -113 l3 -102 -148 3
-147 3 1 -53 c1 -29 6 -59 12 -65 6 -9 6 -13 -2 -13 -6 0 -11 -18 -11 -45 l0
-45 -52 -2 c-29 -1 -88 -1 -130 0 -71 1 -94 -7 -68 -23 14 -8 2 -32 -17 -32
-14 0 -14 2 -1 11 12 9 13 14 3 22 -8 9 -21 7 -48 -6 -20 -10 -37 -15 -37 -10
0 4 -9 6 -20 3 -11 -3 -20 -9 -20 -13 0 -5 -9 -11 -19 -15 -13 -4 -18 -13 -16
-26 4 -17 2 -19 -10 -9 -20 16 -19 30 2 46 10 7 14 16 10 20 -4 5 -12 2 -17
-6 -7 -11 -10 -12 -10 -2 0 7 -4 10 -10 7 -5 -3 -10 -15 -10 -26 0 -23 -15
-25 -24 -3 -3 8 -2 13 2 10 5 -3 9 0 9 7 0 7 -8 13 -18 13 -14 0 -18 -6 -14
-23 2 -12 -1 -26 -7 -29 -7 -4 -8 -2 -4 4 5 8 -1 12 -14 12 -12 0 -19 4 -16 8
6 10 -36 8 -52 -2 -7 -4 -10 -11 -7 -16 3 -5 -7 -3 -21 5 -15 8 -31 12 -35 9
-4 -2 -5 6 -2 18 4 21 3 22 -7 4 -9 -13 -15 -15 -19 -7 -5 8 -15 9 -32 2 -21
-8 -12 -16 14 -12 14 2 7 -17 -9 -23 -27 -10 -34 -7 -34 19 0 21 -3 23 -22 16
-13 -5 -22 -14 -20 -21 1 -6 -2 -9 -8 -5 -6 3 -8 10 -5 15 7 11 -22 33 -34 25
-15 -8 -53 14 -45 26 3 6 12 8 20 5 8 -3 14 -1 14 4 0 6 -15 8 -32 6 -18 -3
-38 -5 -45 -5 -7 -1 -11 -7 -9 -13 1 -7 1 -10 -1 -5 -3 4 -14 7 -24 7 -11 0
-17 5 -14 10 3 6 -1 10 -9 10 -13 0 -16 16 -16 100 l0 101 -60 -2 c-34 -1 -63
-6 -66 -11 -3 -4 -11 -8 -17 -8 -7 0 -6 4 3 10 11 7 4 10 -27 10 l-42 0 0
-101 c0 -56 -2 -103 -4 -105 -1 -2 -35 -4 -74 -6 -47 -1 -70 -6 -66 -12 3 -6
0 -5 -8 2 -7 6 -35 12 -61 12 -56 0 -50 -19 -48 179 1 93 -2 126 -12 132 -10
7 -10 9 0 9 8 0 12 18 12 55 l0 55 -123 0 -123 0 -2 -25 c-1 -14 2 -24 6 -22
6 2 14 -8 11 -15 0 -2 -2 -16 -3 -33 -1 -16 -6 -38 -10 -47 -5 -12 -4 -18 4
-18 6 0 9 4 6 9 -3 5 1 14 9 21 13 11 15 10 12 -6 -1 -11 -7 -26 -12 -34 -8
-13 -6 -13 8 -1 9 7 24 11 32 7 10 -4 14 -2 9 5 -4 7 -1 10 7 7 8 -3 15 -14
15 -26 1 -18 -1 -20 -13 -11 -11 10 -12 8 -7 -5 5 -12 14 -16 31 -13 13 2 26
0 30 -6 3 -6 1 -7 -5 -3 -7 4 -12 3 -12 -2 0 -6 -7 -13 -16 -16 -8 -3 -12 -2
-9 4 3 6 1 10 -4 10 -6 0 -11 -5 -11 -11 0 -6 -6 -9 -12 -6 -7 2 -13 8 -13 13
0 17 -14 32 -35 37 -12 3 -17 1 -14 -5 3 -5 -3 -12 -15 -15 -12 -3 -21 -11
-21 -19 0 -9 -6 -11 -17 -7 -16 6 -16 5 -5 -10 8 -9 11 -21 7 -26 -3 -7 0 -8
9 -5 18 7 20 -4 7 -25 -6 -9 -11 -10 -15 -2 -4 6 -11 9 -16 6 -5 -3 -15 8 -23
25 -9 16 -11 30 -6 30 5 0 13 -10 18 -22 6 -17 9 -18 14 -5 3 9 -1 18 -10 21
-12 5 -13 9 -3 21 11 13 7 15 -26 14 -33 -1 -35 -2 -14 -8 24 -7 24 -7 5 -19
-11 -6 -16 -12 -11 -12 5 0 3 -6 -3 -14 -9 -10 -8 -15 3 -19 20 -8 14 -40 -8
-43 -10 -1 -21 -6 -24 -10 -4 -4 1 -4 10 -1 9 3 19 1 21 -6 6 -17 18 -4 20 22
1 22 12 28 22 12 3 -5 19 -12 35 -16 21 -5 30 -13 30 -26 0 -11 4 -18 9 -15 5
4 7 -3 4 -14 -4 -15 -2 -19 10 -14 18 7 29 -9 21 -30 -6 -15 -8 -15 -20 1 -13
17 -14 17 -20 -4 -3 -13 -11 -23 -16 -23 -6 0 -8 -6 -5 -13 3 -7 -3 -13 -14
-13 -17 0 -17 2 2 22 21 22 21 22 1 33 -11 6 -22 8 -24 5 -3 -3 -8 2 -11 11
-4 9 -1 15 8 15 8 0 15 -5 15 -11 0 -5 5 -7 10 -4 6 3 10 1 10 -6 0 -10 3 -10
11 -2 18 18 3 30 -35 28 -22 0 -38 5 -41 13 -3 10 0 12 10 8 17 -6 19 2 6 22
-6 11 -10 10 -17 -5 -4 -10 -8 -29 -8 -42 -1 -13 -6 -26 -13 -28 -6 -2 -10 4
-9 14 3 21 -23 51 -32 37 -4 -5 -19 -9 -34 -9 -16 0 -27 -3 -25 -6 1 -3 -6
-14 -16 -23 -10 -10 -15 -21 -12 -25 4 -3 12 1 18 10 7 9 18 14 25 12 6 -3 12
0 12 7 0 6 -4 9 -9 5 -5 -3 -13 0 -16 6 -9 14 66 3 80 -13 7 -7 2 -9 -17 -6
-23 4 -28 2 -29 -16 0 -11 -3 -15 -6 -8 -2 6 -9 12 -15 12 -13 0 -38 -26 -32
-33 13 -13 -7 -27 -20 -14 -10 9 -11 14 -2 19 7 5 5 8 -6 8 -10 0 -18 5 -18
10 0 6 -4 10 -8 10 -5 0 -9 -7 -9 -15 0 -8 2 -13 5 -10 8 8 44 -44 37 -55 -3
-5 -2 -10 3 -10 5 0 12 10 16 23 5 18 8 20 16 7 7 -11 10 -11 10 -2 0 7 4 11
9 8 4 -3 6 -18 3 -33 -4 -22 -6 -24 -12 -9 -5 16 -7 17 -19 2 -11 -13 -17 -14
-30 -4 -10 8 -9 4 3 -10 11 -12 22 -19 25 -15 3 5 13 8 21 8 8 0 17 11 21 25
4 14 8 21 8 15 1 -5 6 -3 12 5 8 11 12 12 16 3 2 -7 11 -13 18 -13 7 0 15 -6
18 -14 7 -19 62 -15 61 4 -1 19 50 21 52 3 3 -26 4 -26 18 -8 8 11 12 23 10
27 -3 5 3 8 14 8 28 0 34 11 15 32 -10 12 -12 18 -4 18 8 0 10 7 6 21 -5 15
-4 19 4 15 7 -5 11 1 11 15 0 21 0 21 19 -2 19 -23 19 -24 1 -27 -27 -5 -32
-28 -10 -54 16 -19 19 -20 20 -6 0 9 -6 19 -12 21 -7 3 1 4 17 2 17 -1 34 0
40 3 15 9 45 10 51 0 3 -4 -7 -8 -22 -8 -24 0 -25 -2 -13 -17 10 -11 10 -14 2
-9 -7 4 -13 3 -13 -3 0 -5 6 -12 13 -14 9 -4 9 -6 0 -6 -7 -1 -21 9 -32 21
l-20 21 4 -22 c3 -17 0 -21 -10 -17 -7 2 -16 2 -18 -2 -2 -4 -2 -2 -1 5 2 7
-1 15 -6 18 -6 4 -11 1 -11 -4 -1 -6 -3 -15 -4 -21 -1 -5 -3 -15 -4 -21 0 -5
-6 -7 -12 -3 -8 4 -7 9 2 15 11 7 10 9 -3 9 -26 0 -29 -15 -8 -38 11 -12 20
-30 20 -40 0 -24 24 -24 38 -1 9 13 8 19 -5 23 -11 5 -14 2 -9 -9 3 -9 2 -14
-3 -11 -5 3 -8 17 -8 32 0 18 2 22 8 13 5 -8 9 -9 9 -4 0 6 4 4 9 -4 8 -12 12
-12 25 -2 9 7 13 18 9 24 -4 6 -1 7 6 3 10 -6 9 -12 -1 -24 -21 -25 -16 -47
11 -47 13 0 31 -9 40 -20 9 -11 22 -20 29 -19 6 1 17 2 23 3 5 0 7 6 4 11 -4
6 -15 8 -26 5 -24 -8 -25 10 -1 21 25 11 73 11 68 -1 -2 -5 -9 -9 -15 -7 -6 1
-11 -5 -11 -15 0 -15 1 -15 18 0 10 10 21 14 25 11 10 -10 39 57 30 70 -4 6 0
3 11 -9 10 -11 24 -19 30 -17 6 1 2 -4 -8 -13 -10 -8 -23 -12 -27 -9 -5 3 -9
0 -9 -5 0 -6 5 -11 11 -11 6 0 9 -9 6 -20 -3 -13 0 -20 10 -20 8 0 11 5 8 10
-4 6 3 25 14 44 11 18 17 37 13 41 -4 5 -1 5 6 1 9 -5 11 -19 7 -39 -6 -30 -5
-31 10 -13 12 17 15 17 15 4 0 -9 3 -25 7 -35 6 -16 5 -16 -10 -4 -15 12 -17
12 -12 -1 5 -12 -13 -15 -116 -17 -98 -2 -119 0 -113 11 6 11 5 11 -8 0 -12
-10 -70 -12 -247 -10 l-231 3 0 -117 0 -118 503 -2 502 -3 3 -107 3 -108 459
0 460 0 2 93 c0 50 1 100 0 110 -2 16 13 17 188 17 l190 0 0 105 0 105 140 0
140 0 0 124 c0 73 -4 127 -10 131 -5 3 -10 12 -10 18 0 8 3 8 9 -1 6 -10 29
-12 92 -9 46 3 86 6 89 6 3 1 -6 8 -20 17 l-25 15 25 -7 c22 -6 23 -5 11 10
-12 14 -12 16 3 10 10 -4 15 -12 12 -20 -3 -7 2 -18 10 -25 12 -10 16 -8 21
10 3 12 11 20 17 18 27 -9 34 22 35 148 0 86 -4 134 -12 144 -9 12 -9 13 1 7
8 -5 12 2 12 23 l0 30 128 3 127 3 3 208 2 207 120 0 120 0 0 278 c0 152 -3
314 -7 360 l-6 82 -118 0 -119 0 0 -355z m-277 -610 c-3 -9 -8 -14 -10 -11 -3
3 -2 9 2 15 9 16 15 13 8 -4z m-95 -19 c-10 -7 -14 -17 -10 -21 4 -5 1 -5 -7
0 -12 7 -11 10 4 22 24 17 36 17 13 -1z m49 -2 c-3 -3 -12 -4 -19 -1 -8 3 -5
6 6 6 11 1 17 -2 13 -5z m29 -92 c-17 -16 -18 -16 -5 5 7 12 15 20 18 17 3 -2
-3 -12 -13 -22z m41 -14 c-3 -8 -6 -5 -6 6 -1 11 2 17 5 13 3 -3 4 -12 1 -19z
m-73 -16 c2 -4 -5 -9 -17 -9 -17 -2 -19 0 -7 7 18 12 18 12 24 2z m-54 -22 c0
-5 -2 -10 -4 -10 -3 0 -8 5 -11 10 -3 6 -1 10 4 10 6 0 11 -4 11 -10z m45 -48
c-3 -8 -5 -20 -5 -28 0 -8 -7 -14 -15 -14 -14 0 -14 3 0 24 13 20 14 29 5 48
-11 22 -11 22 5 3 8 -11 13 -26 10 -33z m39 -14 c-11 -17 -24 -6 -24 19 0 26
1 26 14 8 8 -11 12 -23 10 -27z m-204 -28 c0 -5 -5 -10 -11 -10 -5 0 -7 5 -4
10 3 6 8 10 11 10 2 0 4 -4 4 -10z m-2100 -35 c-7 -8 -17 -15 -23 -15 -6 0 -2
7 9 15 25 19 30 19 14 0z m2280 -18 c0 -2 -10 -12 -22 -23 l-23 -19 19 23 c18
21 26 27 26 19z m41 -34 c13 -16 12 -17 -3 -4 -10 7 -18 15 -18 17 0 8 8 3 21
-13z m-2317 -11 c3 -5 -1 -9 -9 -9 -8 0 -12 4 -9 9 3 4 7 8 9 8 2 0 6 -4 9 -8z
m2139 -5 c3 -8 -1 -14 -8 -14 -7 0 -11 6 -8 14 3 7 6 13 8 13 2 0 5 -6 8 -13z
m-2332 -26 c-10 -6 -8 -10 5 -15 15 -6 16 -9 5 -15 -10 -7 -9 -10 8 -16 13 -4
21 -14 20 -28 0 -21 -1 -21 -10 -2 -8 18 -9 17 -6 -6 3 -18 -3 -30 -16 -38
-10 -7 -16 -8 -13 -3 3 6 -1 12 -9 16 -18 7 -20 33 -2 39 8 3 6 10 -8 21 -18
14 -18 15 -2 16 19 0 24 20 5 20 -6 0 -3 6 8 14 10 8 21 12 24 10 2 -3 -1 -9
-9 -13z m178 3 c6 4 11 3 11 -2 0 -15 -30 -23 -30 -9 0 7 -7 3 -15 -7 -18 -24
-20 -14 -3 14 8 12 15 15 19 8 4 -6 12 -7 18 -4z m-106 -39 c9 2 15 0 12 -4
-7 -12 25 -51 42 -51 10 0 14 6 10 20 -3 11 -1 20 4 20 15 0 10 -34 -7 -56 -8
-10 -12 -13 -8 -5 5 11 3 13 -9 8 -11 -4 -17 -1 -17 9 0 9 -5 12 -12 8 -7 -4
-8 -3 -4 4 4 7 2 12 -4 12 -6 0 -9 4 -6 9 3 5 -5 12 -19 15 -14 4 -25 11 -25
17 0 8 4 8 13 2 6 -6 20 -9 30 -8z m112 5 c-3 -5 -12 -10 -18 -10 -7 0 -6 4 3
10 19 12 23 12 15 0z m-285 -26 c0 -8 -5 -12 -10 -9 -6 4 -8 11 -5 16 9 14 15
11 15 -7z m330 -14 c0 -5 -2 -10 -4 -10 -3 0 -8 5 -11 10 -3 6 -1 10 4 10 6 0
11 -4 11 -10z m-30 -35 c-13 -15 -30 -12 -30 7 0 5 7 8 15 4 8 -3 15 0 15 6 0
6 3 8 6 5 4 -4 1 -13 -6 -22z m2024 7 c3 -5 -1 -9 -9 -9 -8 0 -12 4 -9 9 3 4
7 8 9 8 2 0 6 -4 9 -8z m280 0 c3 -5 -1 -9 -9 -9 -8 0 -12 4 -9 9 3 4 7 8 9 8
2 0 6 -4 9 -8z m-559 -12 c3 -5 -1 -10 -10 -10 -9 0 -13 5 -10 10 3 6 8 10 10
10 2 0 7 -4 10 -10z m-1781 -26 c4 -10 1 -14 -6 -12 -15 5 -23 28 -10 28 5 0
13 -7 16 -16z m-134 2 c0 -3 -4 -8 -10 -11 -5 -3 -10 -1 -10 4 0 6 5 11 10 11
6 0 10 -2 10 -4z m2215 -5 c-9 -8 -36 -10 -30 -2 2 4 11 8 20 8 8 0 13 -3 10
-6z m-69 -33 c11 -12 26 -10 19 2 -3 6 -1 10 4 10 17 0 13 -20 -5 -27 -9 -3
-20 0 -25 8 -6 9 -12 10 -16 4 -11 -15 -77 -20 -68 -5 4 6 16 8 27 4 11 -3 18
-2 15 3 -7 11 38 11 49 1z m-2269 -30 c-4 -13 -1 -18 8 -14 11 4 14 -14 4 -34
-3 -7 -6 -23 -8 -36 0 -6 -7 -11 -15 -11 -8 0 -12 6 -9 14 3 8 -2 13 -15 13
-24 0 -37 16 -22 25 5 3 10 10 10 16 0 14 -28 11 -33 -3 -2 -7 -7 -10 -11 -7
-3 3 -4 13 -1 20 6 17 45 23 45 8 0 -6 8 -5 21 1 12 7 18 18 15 26 -4 9 -2 12
5 8 6 -3 8 -15 6 -26z m288 23 c3 -5 2 -12 -3 -15 -5 -3 -9 1 -9 9 0 17 3 19
12 6z m1820 -1 c3 -5 1 -10 -4 -10 -6 0 -11 5 -11 10 0 6 2 10 4 10 3 0 8 -4
11 -10z m-1850 -18 c-3 -3 -11 0 -18 7 -9 10 -8 11 6 5 10 -3 15 -9 12 -12z
m1765 -2 c0 -5 -4 -10 -10 -10 -5 0 -10 5 -10 10 0 6 5 10 10 10 6 0 10 -4 10
-10z m40 6 c0 -3 -4 -8 -10 -11 -5 -3 -10 -1 -10 4 0 6 5 11 10 11 6 0 10 -2
10 -4z m20 -16 c-12 -8 -12 -10 -1 -10 8 0 12 -3 8 -6 -9 -9 -28 6 -22 17 4 5
12 9 18 9 7 0 6 -4 -3 -10z m-1990 -20 c0 -11 -4 -20 -9 -20 -5 0 -7 9 -4 20
3 11 7 20 9 20 2 0 4 -9 4 -20z m-196 -6 c9 -24 7 -28 -7 -15 -8 6 -17 8 -20
4 -4 -3 -7 -2 -7 4 0 25 25 30 34 7z m526 -4 c0 -5 -2 -10 -4 -10 -3 0 -8 5
-11 10 -3 6 -1 10 4 10 6 0 11 -4 11 -10z m1110 -4 c0 -3 -4 -8 -10 -11 -5 -3
-10 -1 -10 4 0 6 5 11 10 11 6 0 10 -2 10 -4z m170 -6 c0 -5 -2 -10 -4 -10 -3
0 -8 5 -11 10 -3 6 -1 10 4 10 6 0 11 -4 11 -10z m-949 -23 c-10 -9 -11 -8 -5
6 3 10 9 15 12 12 3 -3 0 -11 -7 -18z m184 15 c-3 -3 0 -11 6 -19 9 -10 8 -13
-4 -13 -8 0 -17 8 -19 18 -3 11 0 19 8 19 8 0 12 -3 9 -5z m42 -7 c0 -8 -6
-15 -13 -15 -8 0 -11 6 -8 15 4 8 9 15 13 15 4 0 8 -7 8 -15z m-439 -14 c22
-19 26 -54 7 -58 -6 -2 -10 0 -10 5 0 4 -4 13 -8 20 -5 6 -6 16 -2 21 3 6 -3
14 -12 20 -10 6 -13 10 -8 10 6 0 20 -8 33 -18z m72 -7 c0 -8 -4 -14 -8 -14
-4 0 -8 9 -8 19 0 11 4 17 8 15 4 -3 8 -12 8 -20z m-260 12 c0 -2 -7 -7 -16
-10 -8 -3 -12 -2 -9 4 6 10 25 14 25 6z m107 -7 c-15 -9 -16 -13 -6 -27 10
-14 9 -13 -7 1 -16 15 -17 19 -4 27 8 5 20 10 25 10 6 -1 2 -5 -8 -11z m397
-33 c-3 -6 4 0 16 14 12 14 20 18 18 10 -1 -9 2 -15 7 -15 6 0 9 4 7 8 -1 5 3
5 10 1 19 -12 38 -14 38 -3 0 5 7 9 15 9 8 0 12 -6 9 -15 -3 -8 -9 -14 -12
-13 -4 0 -9 -1 -12 -2 -3 -2 -30 -3 -61 -4 -54 -2 -55 -1 -51 24 3 20 1 22 -7
10 -6 -8 -11 -10 -11 -4 0 6 3 14 7 18 10 10 34 -24 27 -38z m816 34 c0 -5 -2
-10 -4 -10 -3 0 -8 5 -11 10 -3 6 -1 10 4 10 6 0 11 -4 11 -10z m67 -5 c0 -8
-4 -12 -9 -9 -5 3 -6 10 -3 15 9 13 12 11 12 -6z m-1227 -4 c0 -6 -4 -13 -10
-16 -5 -3 -10 1 -10 9 0 9 5 16 10 16 6 0 10 -4 10 -9z m-230 -16 c7 -9 8 -15
2 -15 -5 0 -12 7 -16 15 -3 8 -4 15 -2 15 2 0 9 -7 16 -15z m525 5 c-3 -5 -11
-10 -16 -10 -6 0 -7 5 -4 10 3 6 11 10 16 10 6 0 7 -4 4 -10z m-418 -20 c-1
-12 -5 -16 -10 -11 -5 5 -6 14 -3 20 11 16 15 13 13 -9z m663 0 c9 -16 8 -18
-5 -14 -8 4 -15 12 -15 20 0 20 7 17 20 -6z m275 2 c-3 -3 -11 0 -18 7 -9 10
-8 11 6 5 10 -3 15 -9 12 -12z m-700 -1 c3 -5 0 -13 -6 -17 -7 -4 -9 -3 -5 4
3 5 0 13 -6 15 -9 4 -10 6 -1 6 6 1 14 -3 18 -8z m715 -38 c0 -3 -5 -1 -11 3
-7 4 -20 7 -30 8 -11 1 -19 4 -19 9 0 4 0 12 0 17 0 6 14 1 30 -12 17 -12 30
-23 30 -25z m-1096 6 c-9 -15 -34 -10 -28 5 3 8 12 12 20 9 8 -3 11 -9 8 -14z
m60 6 c-7 -16 -44 -21 -44 -5 0 5 7 7 15 4 8 -4 15 -1 15 5 0 6 4 11 10 11 5
0 7 -7 4 -15z m456 6 c0 -9 -48 -12 -54 -3 -2 4 9 7 25 8 16 1 29 -2 29 -5z
m225 -1 c-3 -5 -12 -10 -18 -10 -7 0 -6 4 3 10 19 12 23 12 15 0z m118 -5 c-3
-9 -8 -14 -10 -11 -3 3 -2 9 2 15 9 16 15 13 8 -4z m412 5 c3 -5 1 -10 -4 -10
-6 0 -11 5 -11 10 0 6 2 10 4 10 3 0 8 -4 11 -10z m-853 -23 c-2 -11 3 -14 16
-10 12 3 22 -2 25 -11 4 -9 14 -16 23 -16 31 0 4 -14 -33 -17 -33 -2 -35 -1
-17 12 17 13 17 14 2 15 -9 0 -21 -6 -25 -14 -7 -12 -10 -12 -21 0 -11 12 -10
14 6 14 21 0 25 28 7 43 -6 5 -4 7 5 4 8 -2 14 -11 12 -20z m246 -2 c-3 -3 -9
2 -12 12 -6 14 -5 15 5 6 7 -7 10 -15 7 -18z m-308 -1 c0 -2 -7 -4 -15 -4 -8
0 -15 4 -15 10 0 5 7 7 15 4 8 -4 15 -8 15 -10z m284 8 c2 -4 -5 -9 -17 -9
-17 -2 -19 0 -7 7 18 12 18 12 24 2z m-336 -19 c-6 -7 -12 -13 -13 -13 -2 0
-5 6 -8 13 -3 7 3 13 14 13 13 0 15 -3 7 -13z m197 -1 c-3 -3 -11 0 -18 7 -9
10 -8 11 6 5 10 -3 15 -9 12 -12z m-151 -14 c-2 -4 4 -11 13 -17 15 -9 16 -10
2 -11 -9 0 -23 8 -32 18 -15 16 -15 18 3 18 10 0 17 -4 14 -8z m1251 -17 c-8
-14 -35 -14 -35 -1 0 5 7 7 15 4 8 -4 15 -1 15 7 0 7 3 10 6 6 3 -3 3 -10 -1
-16z m-1070 -1 c-3 -5 -11 -10 -16 -10 -6 0 -7 5 -4 10 3 6 11 10 16 10 6 0 7
-4 4 -10z m55 -5 c7 -9 10 -18 6 -22 -3 -3 -6 -1 -6 6 0 6 -10 16 -22 21 -16
6 -18 9 -7 9 9 1 22 -6 29 -14z m1147 -1 c-3 -3 -12 -4 -19 -1 -8 3 -5 6 6 6
11 1 17 -2 13 -5z m-772 -34 c3 -6 -1 -7 -9 -4 -18 7 -21 14 -7 14 6 0 13 -4
16 -10z m-368 -72 c15 -12 15 -11 5 9 -9 16 -9 22 1 26 19 7 19 -31 0 -59 -25
-38 -33 -28 -31 39 0 34 3 48 5 30 2 -17 11 -37 20 -45z m313 62 c0 -5 -2 -10
-4 -10 -3 0 -8 5 -11 10 -3 6 -1 10 4 10 6 0 11 -4 11 -10z m-142 -155 c-3 -3
-9 2 -12 12 -6 14 -5 15 5 6 7 -7 10 -15 7 -18z"/>
<path d="M3440 4806 c0 -2 7 -7 16 -10 8 -3 12 -2 9 4 -6 10 -25 14 -25 6z"/>
<path d="M3333 4654 c1 -24 20 -26 40 -5 10 11 8 13 -10 8 -12 -2 -24 0 -27 7
-2 6 -4 1 -3 -10z"/>
<path d="M3900 4591 c0 -6 4 -13 10 -16 6 -3 7 1 4 9 -7 18 -14 21 -14 7z"/>
<path d="M4191 4344 c0 -11 3 -14 6 -6 3 7 2 16 -1 19 -3 4 -6 -2 -5 -13z"/>
<path d="M3304 4873 c4 -24 -16 -37 -32 -21 -7 7 -10 6 -8 -5 3 -25 10 -27 33
-9 16 13 19 22 12 37 -9 19 -9 19 -5 -2z"/>
<path d="M3182 4837 c-6 -7 -7 -19 -3 -26 6 -9 10 -5 13 13 6 30 5 31 -10 13z"/>
<path d="M3234 4808 c-4 -7 -3 -8 4 -4 7 4 12 1 12 -8 0 -16 12 -21 23 -10 6
6 -16 34 -27 34 -3 0 -8 -5 -12 -12z"/>
<path d="M3206 4785 c-4 -11 -2 -14 6 -9 8 5 9 0 5 -15 -4 -18 -3 -20 9 -10
11 9 12 15 2 28 -7 9 -13 17 -14 19 -1 2 -4 -4 -8 -13z"/>
<path d="M3181 4783 c-1 -6 -4 -20 -7 -30 -5 -17 -5 -17 6 0 6 10 9 23 6 30
-3 9 -5 9 -5 0z"/>
<path d="M3261 4766 c-10 -12 -8 -13 8 -9 12 3 18 9 15 14 -7 12 -10 11 -23
-5z"/>
<path d="M3380 4774 c0 -2 9 -8 20 -14 15 -8 18 -8 14 3 -4 11 -34 21 -34 11z"/>
<path d="M3135 4719 c-11 -17 1 -21 15 -4 8 9 8 15 2 15 -6 0 -14 -5 -17 -11z"/>
<path d="M3068 4713 c6 -3 10 -9 6 -14 -8 -14 2 -11 14 4 8 10 6 13 -11 14
-12 0 -16 -1 -9 -4z"/>
<path d="M3078 4668 c-19 -19 -13 -24 11 -9 7 5 12 13 10 18 -2 5 -12 1 -21
-9z"/>
<path d="M3030 4670 c-8 -5 -10 -10 -5 -10 6 0 17 5 25 10 8 5 11 10 5 10 -5
0 -17 -5 -25 -10z"/>
<path d="M4765 4670 c-3 -5 -1 -10 4 -10 6 0 11 5 11 10 0 6 -2 10 -4 10 -3 0
-8 -4 -11 -10z"/>
<path d="M4598 4643 c7 -3 16 -2 19 1 4 3 -2 6 -13 5 -11 0 -14 -3 -6 -6z"/>
<path d="M4766 4633 c-6 -14 -5 -15 5 -6 7 7 10 15 7 18 -3 3 -9 -2 -12 -12z"/>
<path d="M3070 4627 c0 -7 5 -18 12 -25 9 -9 7 -12 -10 -12 -12 0 -22 -5 -22
-11 0 -7 7 -8 18 -4 21 9 32 9 57 0 11 -4 5 3 -13 14 -22 14 -32 27 -28 36 3
8 1 15 -4 15 -6 0 -10 -6 -10 -13z"/>
<path d="M3145 4629 c-4 -6 -4 -13 -1 -16 3 -4 6 0 6 8 0 12 2 12 9 0 6 -9 6
-22 0 -33 -11 -20 -3 -42 12 -32 5 3 7 14 4 24 -3 10 -1 21 5 25 8 5 8 11 -1
21 -14 17 -25 18 -34 3z"/>
<path d="M4530 4626 c0 -9 30 -14 35 -6 4 6 -3 10 -14 10 -12 0 -21 -2 -21 -4z"/>
<path d="M3410 4595 c-7 -8 -9 -15 -4 -15 5 0 1 -5 -9 -11 -9 -5 -22 -7 -27
-4 -6 3 -7 -1 -4 -9 4 -11 0 -16 -11 -16 -9 0 -14 4 -10 9 3 5 1 12 -5 16 -5
3 -10 -1 -10 -9 0 -18 8 -23 45 -30 16 -3 35 0 43 7 8 7 18 12 21 12 3 0 5 7
3 15 -1 8 -3 23 -4 33 -3 21 -12 22 -28 2z m10 -45 c-6 -11 -15 -18 -21 -15
-5 4 -1 16 8 30 21 27 30 16 13 -15z"/>
<path d="M3269 4574 c-1 -5 -1 -13 0 -17 1 -5 -7 -7 -18 -5 -11 2 -20 -1 -20
-7 0 -5 7 -9 15 -7 8 2 14 -4 14 -13 0 -18 11 -19 29 -2 11 10 13 10 7 0 -4
-7 -3 -13 2 -13 21 0 19 29 -4 51 -13 12 -25 18 -25 13z"/>
<path d="M3465 4570 c-3 -5 -1 -10 4 -10 6 0 11 5 11 10 0 6 -2 10 -4 10 -3 0
-8 -4 -11 -10z"/>
<path d="M3077 4558 c4 -7 8 -16 8 -20 0 -3 4 -10 9 -15 5 -4 6 -3 2 4 -3 6
-2 14 4 18 14 8 3 25 -16 25 -10 0 -12 -5 -7 -12z"/>
<path d="M3181 4553 c-8 -9 -23 -12 -40 -9 -21 5 -23 4 -9 -4 16 -10 64 -7 76
5 3 3 1 9 -4 14 -5 6 -14 3 -23 -6z"/>
<path d="M3475 4540 c3 -5 11 -10 16 -10 6 0 7 5 4 10 -3 6 -11 10 -16 10 -6
0 -7 -4 -4 -10z"/>
<path d="M3455 4520 c3 -5 14 -10 23 -10 15 0 15 2 2 10 -20 13 -33 13 -25 0z"/>
<path d="M3123 4505 c0 -8 4 -12 9 -9 5 3 6 10 3 15 -9 13 -12 11 -12 -6z"/>
<path d="M3179 4503 c-13 -16 -12 -17 4 -4 9 7 17 15 17 17 0 8 -8 3 -21 -13z"/>
<path d="M3330 4510 c17 -11 47 -14 36 -3 -3 4 -17 8 -29 10 -17 2 -19 1 -7
-7z"/>
<path d="M3764 4505 c-9 -22 1 -29 15 -11 8 10 9 16 1 21 -5 3 -13 -1 -16 -10z"/>
<path d="M3270 4500 c-9 -6 -10 -10 -3 -10 6 0 15 5 18 10 8 12 4 12 -15 0z"/>
<path d="M3312 3763 l-103 -4 3 -107 3 -107 103 -3 102 -3 0 116 c0 63 -1 114
-2 113 -2 -1 -49 -4 -106 -5z"/>
<path d="M2143 963 l-2143 -3 0 -480 0 -480 4720 0 4720 0 0 80 0 80 80 0 80
0 0 -80 0 -80 160 0 160 0 0 80 0 80 80 0 80 0 0 -80 0 -80 80 0 80 0 0 480 0
480 -2607 0 c-1435 0 -2774 2 -2978 3 -203 2 -1334 2 -2512 0z"/>
</g>
</svg>
